<svg fill="#ffffff" xmlns="http://www.w3.org/2000/svg" viewBox="0 0 32 32" width="32px" height="32px"><path d="M 9.09375 5 C 6.851563 5 5 6.851563 5 9.09375 L 5 22.90625 C 5 25.148438 6.851563 27 9.09375 27 L 22.90625 27 C 25.148438 27 27 25.148438 27 22.90625 L 27 9.09375 C 27 6.851563 25.148438 5 22.90625 5 Z M 9.09375 7 L 22.90625 7 C 24.066406 7 25 7.933594 25 9.09375 L 25 22.90625 C 25 24.066406 24.066406 25 22.90625 25 L 9.09375 25 C 7.933594 25 7 24.066406 7 22.90625 L 7 9.09375 C 7 7.933594 7.933594 7 9.09375 7 Z M 12.09375 10.5625 L 12.09375 21.4375 L 16.59375 21.4375 C 18.648438 21.4375 20.84375 20.542969 20.84375 18.09375 C 20.84375 16.109375 19.296875 15.609375 18.625 15.46875 L 18.625 15.4375 C 19.089844 15.242188 20.125 14.578125 20.125 13.09375 C 20.125 11.496094 19.046875 10.5625 16.34375 10.5625 Z M 14.875 12.5625 C 14.875 12.5625 15.910156 12.5625 16.15625 12.5625 C 17.285156 12.5625 17.34375 13.480469 17.34375 13.65625 C 17.34375 14.363281 16.835938 14.84375 16.1875 14.84375 C 16 14.84375 14.875 14.875 14.875 14.875 Z M 14.875 16.71875 C 14.875 16.71875 16.242188 16.710938 16.53125 16.71875 C 16.820313 16.726563 18.03125 16.785156 18.03125 18.0625 C 18.03125 19.335938 16.769531 19.425781 16.5 19.4375 C 16.230469 19.449219 14.875 19.4375 14.875 19.4375 Z"/></svg>